<?xml version="1.0" encoding="UTF-8" standalone="no"?>
<!DOCTYPE svg PUBLIC "-//W3C//DTD SVG 1.1//EN" "http://www.w3.org/Graphics/SVG/1.1/DTD/svg11.dtd">
<svg xmlns="http://www.w3.org/2000/svg" version="1.1" viewBox="285 180 457 620">
<path fill="#ffffff" d="
  M 497.87 183.05
  Q 525.08 209.11 538.20 221.09
  Q 538.53 221.40 582.43 262.33
  Q 595.18 274.22 608.02 285.99
  Q 625.12 301.67 639.15 315.02
  Q 644.15 319.79 648.38 323.44
  C 652.46 326.95 656.99 331.76 660.95 335.32
  Q 678.29 350.94 697.10 368.59
  Q 704.88 375.89 719.46 389.25
  A 0.53 0.53 0.0 0 1 719.49 390.00
  Q 707.03 403.32 703.05 407.82
  Q 695.05 416.86 688.23 424.13
  C 680.39 432.50 674.55 439.39 667.33 447.61
  A 0.88 0.87 42.6 0 1 666.07 447.66
  L 511.83 301.32
  A 0.95 0.95 0.0 0 0 510.47 301.37
  L 408.58 414.63
  A 0.77 0.76 -47.7 0 0 408.63 415.70
  L 562.78 557.63
  A 0.91 0.90 39.1 0 1 562.91 558.81
  C 561.74 560.50 560.48 561.54 559.44 562.64
  C 550.42 572.17 544.16 579.27 535.79 587.74
  Q 530.40 593.18 516.35 608.35
  Q 514.70 610.13 513.18 608.72
  Q 507.26 603.20 482.91 581.21
  Q 478.95 577.64 453.06 553.94
  Q 421.91 525.44 406.71 510.97
  Q 396.92 501.64 390.43 495.70
  Q 367.01 474.24 351.90 459.87
  C 348.03 456.19 344.84 453.61 340.71 449.49
  Q 337.90 446.69 318.07 428.40
  C 310.57 421.47 300.90 411.60 293.86 405.89
  Q 293.31 405.44 292.62 405.13
  A 0.81 0.81 0.0 0 1 292.37 403.84
  Q 316.55 378.31 341.12 352.02
  Q 343.33 349.66 345.52 347.13
  C 348.07 344.18 351.51 341.24 354.26 338.07
  C 360.19 331.21 366.04 325.38 371.88 318.95
  Q 391.03 297.85 410.50 276.77
  Q 415.08 271.82 418.35 268.44
  Q 423.08 263.56 426.20 260.12
  Q 435.29 250.09 444.07 240.75
  C 454.56 229.59 463.89 219.02 472.35 210.29
  Q 478.06 204.39 484.87 196.47
  Q 486.62 194.43 497.03 183.07
  A 0.59 0.59 0.0 0 1 497.87 183.05
  Z"
/>
<path fill="#ffffff" d="
  M 512.72 678.12
  Q 512.77 677.94 512.94 677.70
  Q 513.22 677.33 544.42 643.43
  Q 551.36 635.89 558.55 628.31
  Q 562.81 623.81 563.42 623.17
  C 572.11 613.92 580.07 604.79 589.52 594.58
  Q 599.91 583.37 612.50 569.38
  C 616.80 564.61 620.75 560.70 624.46 555.92
  A 1.56 1.56 0.0 0 0 624.28 553.82
  L 462.00 404.40
  A 0.81 0.79 43.0 0 1 461.95 403.27
  Q 484.95 378.45 503.29 359.30
  C 504.80 357.72 506.15 357.80 507.63 359.36
  Q 511.61 363.56 518.20 369.15
  Q 519.98 370.66 528.86 378.81
  Q 570.49 416.99 590.27 435.24
  Q 594.07 438.75 594.29 438.95
  Q 624.57 466.39 642.40 482.36
  Q 645.04 484.71 661.64 499.59
  Q 665.63 503.16 674.75 511.52
  Q 682.11 518.28 687.73 523.20
  Q 721.52 552.81 734.02 564.19
  C 735.53 565.56 737.35 566.62 738.91 567.94
  A 1.53 1.53 0.0 0 1 738.89 570.29
  Q 737.46 571.47 736.37 572.62
  Q 723.86 585.90 711.95 598.96
  Q 711.00 600.01 709.80 601.29
  Q 692.90 619.44 676.75 636.67
  C 674.42 639.16 671.54 642.62 668.58 645.83
  Q 630.61 687.02 597.98 722.98
  Q 594.39 726.95 563.68 760.33
  C 559.01 765.41 555.71 768.77 550.58 774.58
  Q 542.06 784.22 529.66 797.35
  A 0.91 0.90 -46.6 0 1 528.39 797.39
  L 287.87 574.50
  A 1.17 1.17 0.0 0 1 287.82 572.83
  C 295.81 564.42 303.75 556.69 311.73 547.99
  Q 329.70 528.40 337.56 520.24
  A 1.17 1.16 43.8 0 1 339.20 520.21
  Q 348.05 528.56 359.18 538.57
  C 376.47 554.14 388.63 565.32 400.69 576.56
  Q 416.34 591.14 432.47 605.70
  Q 438.57 611.21 446.09 618.23
  Q 452.96 624.64 459.73 630.78
  Q 478.84 648.10 491.12 658.88
  Q 495.13 662.40 496.47 663.74
  C 501.52 668.81 507.23 673.19 511.91 678.32
  A 0.47 0.47 0.0 0 0 512.72 678.12
  Z"
/>
</svg>
